<svg xmlns="http://www.w3.org/2000/svg" width="170.111" height="143.634" viewBox="0 0 170.111 143.634">
  <g id="Group_245" data-name="Group 245" transform="translate(-340.619 -359.998)">
    <path id="Path_3960" data-name="Path 3960" d="M403.44,407.932s-14.387-17.8,5.608-31.7c0,0,13.291,18.9-5.608,31.7" transform="translate(-28.19 -7.915)" fill="#fc8410"/>
    <path id="Path_3961" data-name="Path 3961" d="M407.261,440.9s21.48,1.608,17.169,25.576c0,0-21.48-3.159-17.169-25.576" transform="translate(-32.216 -39.45)" fill="#fc8410"/>
    <path id="Path_3962" data-name="Path 3962" d="M478.044,388.653s-8.285-17.571,8.689-28.655c0,0,13.214,16.3-8.689,28.655" transform="translate(-66.023 0)" fill="#fc8410"/>
    <path id="Path_3963" data-name="Path 3963" d="M474.5,418.91s19.051,7.639,14.565,27.409c0,0-21.713-3.3-14.565-27.409" transform="translate(-64.576 -28.726)" fill="#fc8410"/>
    <path id="Path_3964" data-name="Path 3964" d="M573.048,428.2s20.534-7.095,25.67,16.191c0,0-19.775,7.642-25.67-16.191" transform="translate(-113.333 -32.759)" fill="#fc8410"/>
    <path id="Path_3965" data-name="Path 3965" d="M534.289,418.551s19.145,6.731,14.658,26.5c0,0-17.9,1.212-14.658-26.5" transform="translate(-94.243 -28.551)" fill="#fc8410"/>
    <path id="Path_3966" data-name="Path 3966" d="M529.833,391.392S526.55,372.246,545.87,366.1c0,0,8.372,19.245-16.037,25.287" transform="translate(-92.158 -2.978)" fill="#fc8410"/>
    <path id="Path_3967" data-name="Path 3967" d="M377.551,436.2l-.7-1.006a140.1,140.1,0,0,1,33.224-15.7c17.954-5.764,44.645-9.958,69.844,2.8l-.553,1.092c-24.816-12.564-51.156-8.422-68.883-2.736A138.829,138.829,0,0,0,377.551,436.2" transform="translate(-17.669 -26.301)" fill="#fc8410"/>
    <g id="Group_239" data-name="Group 239" transform="translate(340.619 451.656)">
      <path id="Path_3968" data-name="Path 3968" d="M340.619,536.513h3.442V558.57h8.306v3.442H340.619Z" transform="translate(-340.619 -536.513)" fill="#106853"/>
    </g>
    <g id="Group_240" data-name="Group 240" transform="translate(372.225 450.656)">
      <path id="Path_3969" data-name="Path 3969" d="M402.3,536.589h3.483v15.672a7.9,7.9,0,0,0,1.671,5.384,5.968,5.968,0,0,0,4.734,1.9,6.273,6.273,0,0,0,4.734-1.751,6.814,6.814,0,0,0,1.691-4.934V536.589H422.1v16.032a10.4,10.4,0,0,1-2.672,7.486,9.372,9.372,0,0,1-7.116,2.8,9.624,9.624,0,0,1-7.276-2.842q-2.732-2.842-2.732-8.386Z" transform="translate(-402.302 -536.589)" fill="#106853"/>
    </g>
    <g id="Group_241" data-name="Group 241" transform="translate(411.603 449.656)">
      <path id="Path_3970" data-name="Path 3970" d="M500.99,536.629v3.943a17.417,17.417,0,0,0-7.586-2.022,10.5,10.5,0,0,0-7.486,2.869,9.68,9.68,0,0,0,.07,14.157,11.106,11.106,0,0,0,7.8,2.849,14.753,14.753,0,0,0,7.206-2.142v3.983a15.742,15.742,0,0,1-7.506,1.842,14.144,14.144,0,0,1-10.128-4.01,12.884,12.884,0,0,1-4.2-9.67,12.714,12.714,0,0,1,4.134-9.52,13.874,13.874,0,0,1,9.957-3.96A19.963,19.963,0,0,1,500.99,536.629Z" transform="translate(-479.153 -534.948)" fill="#106853"/>
    </g>
    <g id="Group_242" data-name="Group 242" transform="translate(453.646 451.656)">
      <path id="Path_3971" data-name="Path 3971" d="M561.2,536.512h3.483V546.87L575.5,536.512h4.856l-12.324,11.833,12.4,13.667H576l-11.317-12.44v12.44H561.2Z" transform="translate(-561.203 -536.512)" fill="#106853"/>
    </g>
    <g id="Group_243" data-name="Group 243" transform="translate(490.554 451.656)">
      <path id="Path_3972" data-name="Path 3972" d="M633.234,536.512h3.854l6.265,10.266,6.2-10.266h3.861l-8.366,13.811v11.689H641.56V550.363Z" transform="translate(-633.234 -536.512)" fill="#106853"/>
    </g>
    <g id="Group_244" data-name="Group 244" transform="translate(356.916 494.439)">
      <path id="Path_3973" data-name="Path 3973" d="M380.331,630.248a4.749,4.749,0,0,1-6.568,0,4.681,4.681,0,0,1,.007-6.562,4.749,4.749,0,0,1,6.555,0,4.681,4.681,0,0,1,.007,6.562Zm-.726-5.875a3.6,3.6,0,0,0-5.116,0,3.732,3.732,0,0,0,0,5.2,3.6,3.6,0,0,0,5.116,0,3.732,3.732,0,0,0,0-5.2Z" transform="translate(-372.424 -622.374)" fill="#106853"/>
      <path id="Path_3974" data-name="Path 3974" d="M404.111,622.66v.932h-3.064v2.625H404v.933h-2.958v4.4h-.985V622.66Z" transform="translate(-385.9 -622.513)" fill="#106853"/>
      <path id="Path_3975" data-name="Path 3975" d="M421.453,622.66v.932h-3.064v2.625h2.958v.933h-2.958v4.4H417.4V622.66Z" transform="translate(-394.356 -622.513)" fill="#106853"/>
      <path id="Path_3976" data-name="Path 3976" d="M434.744,622.66h.986v8.886h-.986Z" transform="translate(-402.811 -622.513)" fill="#106853"/>
      <path id="Path_3977" data-name="Path 3977" d="M453.536,623.253v1.226a4.076,4.076,0,0,0-1.159-.826,3.657,3.657,0,0,0-1.532-.346,3.373,3.373,0,0,0-2.551,1.072,3.676,3.676,0,0,0-1.019,2.631,3.34,3.34,0,0,0,1.112,2.651,3.664,3.664,0,0,0,2.471.973,3.553,3.553,0,0,0,1.652-.413,3.933,3.933,0,0,0,1.026-.746V630.7a4.5,4.5,0,0,1-2.678.866,4.63,4.63,0,0,1-3.27-7.873,4.52,4.52,0,0,1,3.324-1.319A4.234,4.234,0,0,1,453.536,623.253Z" transform="translate(-408.428 -622.374)" fill="#106853"/>
      <path id="Path_3978" data-name="Path 3978" d="M474.661,622.66v.932h-3.624v2.638h3.517v.933h-3.517v3.45h3.624v.933h-4.609V622.66Z" transform="translate(-420.028 -622.513)" fill="#106853"/>
      <path id="Path_3979" data-name="Path 3979" d="M499,623.76l-.785.52a2.105,2.105,0,0,0-.52-.666,1.6,1.6,0,0,0-1-.306,1.533,1.533,0,0,0-1.079.379,1.286,1.286,0,0,0-.413.993,1.031,1.031,0,0,0,.333.773,3.158,3.158,0,0,0,.933.56l.853.373a4.535,4.535,0,0,1,1.372.839,2.186,2.186,0,0,1,.639,1.612,2.6,2.6,0,0,1-.8,1.971,2.8,2.8,0,0,1-2.012.759,2.639,2.639,0,0,1-1.932-.719,3.112,3.112,0,0,1-.826-1.572l.959-.266a2.015,2.015,0,0,0,.533,1.132,1.73,1.73,0,0,0,1.279.492,1.693,1.693,0,0,0,1.319-.513,1.784,1.784,0,0,0,.466-1.246,1.339,1.339,0,0,0-.44-1.039,4.422,4.422,0,0,0-1.066-.613l-.8-.372a4.362,4.362,0,0,1-1.186-.733,1.929,1.929,0,0,1-.613-1.452,2.13,2.13,0,0,1,.7-1.658,2.567,2.567,0,0,1,1.792-.633A2.456,2.456,0,0,1,499,623.76Z" transform="translate(-431.589 -622.374)" fill="#106853"/>
      <path id="Path_3980" data-name="Path 3980" d="M515.209,622.66v5.449q0,.506.021.786a2.278,2.278,0,0,0,.187.686,1.741,1.741,0,0,0,.5.686,2.374,2.374,0,0,0,2.931,0,1.749,1.749,0,0,0,.5-.686,2.306,2.306,0,0,0,.186-.686q.02-.28.02-.786V622.66h.986v5.715a3.571,3.571,0,0,1-.56,2.132,2.834,2.834,0,0,1-1.086.88,3.739,3.739,0,0,1-3.024,0,2.835,2.835,0,0,1-1.086-.88,3.574,3.574,0,0,1-.559-2.132V622.66Z" transform="translate(-441.566 -622.513)" fill="#106853"/>
      <path id="Path_3981" data-name="Path 3981" d="M537.077,622.66h1.612a3.352,3.352,0,0,1,2.238.626,2.373,2.373,0,0,1,.813,1.905,2.45,2.45,0,0,1-.7,1.765,2.8,2.8,0,0,1-2.112.726h-.865v3.863h-.986Zm.986.932v3.157h.813a2.052,2.052,0,0,0,1.378-.426,1.472,1.472,0,0,0,.5-1.186q0-1.545-1.958-1.545Z" transform="translate(-452.709 -622.513)" fill="#106853"/>
      <path id="Path_3982" data-name="Path 3982" d="M554.991,622.66H556.6a3.353,3.353,0,0,1,2.238.626,2.371,2.371,0,0,1,.813,1.905,2.45,2.45,0,0,1-.7,1.765,2.8,2.8,0,0,1-2.112.726h-.865v3.863h-.986Zm.986.932v3.157h.813a2.051,2.051,0,0,0,1.378-.426,1.473,1.473,0,0,0,.5-1.186q0-1.545-1.958-1.545Z" transform="translate(-461.444 -622.513)" fill="#106853"/>
      <path id="Path_3983" data-name="Path 3983" d="M579.875,630.248a4.749,4.749,0,0,1-6.568,0,4.681,4.681,0,0,1,.007-6.562,4.749,4.749,0,0,1,6.555,0,4.681,4.681,0,0,1,.007,6.562Zm-.726-5.875a3.6,3.6,0,0,0-5.116,0,3.732,3.732,0,0,0,0,5.2,3.6,3.6,0,0,0,5.116,0,3.732,3.732,0,0,0,0-5.2Z" transform="translate(-469.722 -622.374)" fill="#106853"/>
      <path id="Path_3984" data-name="Path 3984" d="M599.6,622.66h1.426a3.844,3.844,0,0,1,2.159.493,2.216,2.216,0,0,1,.972,1.972,2.435,2.435,0,0,1-.62,1.705,2.309,2.309,0,0,1-1.619.746l2.825,3.97h-1.2l-2.7-3.89h-.253v3.89H599.6Zm.986.932v3.185h.626a2.21,2.21,0,0,0,1.439-.426,1.466,1.466,0,0,0,.519-1.2,1.385,1.385,0,0,0-.706-1.306,2.655,2.655,0,0,0-1.279-.253Z" transform="translate(-483.198 -622.513)" fill="#106853"/>
      <path id="Path_3985" data-name="Path 3985" d="M622.146,623.592h-2.158v7.953H619v-7.953h-2.158v-.932h5.3Z" transform="translate(-491.604 -622.513)" fill="#106853"/>
    </g>
  </g>
</svg>
