<svg xmlns="http://www.w3.org/2000/svg" width="119.251" height="100.69" viewBox="0 0 119.251 100.69">
  <g id="Group_317" data-name="Group 317" transform="translate(-340.619 -359.998)">
    <path id="Path_3960" data-name="Path 3960" d="M401.943,398.454s-10.086-12.479,3.931-22.223c0,0,9.317,13.249-3.931,22.223" transform="translate(-37.046 -10.402)" fill="#fff"/>
    <path id="Path_3961" data-name="Path 3961" d="M407.09,440.9s15.058,1.127,12.036,17.929c0,0-15.058-2.215-12.036-17.929" transform="translate(-42.338 -51.844)" fill="#fff"/>
    <path id="Path_3962" data-name="Path 3962" d="M477.44,380.086s-5.808-12.317,6.091-20.088c0,0,9.263,11.43-6.091,20.088" transform="translate(-86.766 0)" fill="#fff"/>
    <path id="Path_3963" data-name="Path 3963" d="M474.066,418.91s13.355,5.355,10.21,19.214c0,0-15.221-2.314-10.21-19.214" transform="translate(-84.864 -37.751)" fill="#fff"/>
    <path id="Path_3964" data-name="Path 3964" d="M573.048,427.894s14.395-4.974,17.995,11.35c0,0-13.863,5.357-17.995-11.35" transform="translate(-148.94 -43.051)" fill="#fff"/>
    <path id="Path_3965" data-name="Path 3965" d="M534.172,418.551s13.421,4.718,10.275,18.578c0,0-12.548.85-10.275-18.578" transform="translate(-123.852 -37.521)" fill="#fff"/>
    <path id="Path_3966" data-name="Path 3966" d="M529.77,383.832s-2.3-13.422,11.242-17.727c0,0,5.869,13.491-11.242,17.727" transform="translate(-121.113 -3.913)" fill="#fff"/>
    <path id="Path_3967" data-name="Path 3967" d="M377.343,429.546l-.488-.705a98.213,98.213,0,0,1,23.291-11.008c12.586-4.041,31.3-6.981,48.962,1.962l-.388.766c-17.4-8.808-35.862-5.9-48.289-1.918a97.321,97.321,0,0,0-23.088,10.9" transform="translate(-23.22 -34.564)" fill="#fff"/>
    <g id="Group_239" data-name="Group 239" transform="translate(340.619 424.252)">
      <path id="Path_3968" data-name="Path 3968" d="M340.619,536.513h2.413v15.463h5.823v2.413h-8.236Z" transform="translate(-340.619 -536.513)" fill="#fff"/>
    </g>
    <g id="Group_240" data-name="Group 240" transform="translate(362.776 423.551)">
      <path id="Path_3969" data-name="Path 3969" d="M402.3,536.589h2.441v10.987a5.536,5.536,0,0,0,1.171,3.774,4.184,4.184,0,0,0,3.319,1.333,4.4,4.4,0,0,0,3.318-1.228A4.776,4.776,0,0,0,413.738,548V536.589h2.441v11.239a7.288,7.288,0,0,1-1.873,5.248,6.57,6.57,0,0,1-4.988,1.964,6.746,6.746,0,0,1-5.1-1.992q-1.915-1.992-1.915-5.879Z" transform="translate(-402.302 -536.589)" fill="#fff"/>
    </g>
    <g id="Group_241" data-name="Group 241" transform="translate(390.381 422.85)">
      <path id="Path_3970" data-name="Path 3970" d="M494.461,536.127v2.764a12.21,12.21,0,0,0-5.318-1.417,7.362,7.362,0,0,0-5.248,2.012,6.786,6.786,0,0,0,.049,9.924,7.785,7.785,0,0,0,5.465,2,10.342,10.342,0,0,0,5.051-1.5V552.7a11.035,11.035,0,0,1-5.262,1.291,9.916,9.916,0,0,1-7.1-2.811,9.032,9.032,0,0,1-2.947-6.779,8.913,8.913,0,0,1,2.9-6.674,9.726,9.726,0,0,1,6.98-2.776A13.994,13.994,0,0,1,494.461,536.127Z" transform="translate(-479.153 -534.948)" fill="#fff"/>
    </g>
    <g id="Group_242" data-name="Group 242" transform="translate(419.853 424.252)">
      <path id="Path_3971" data-name="Path 3971" d="M561.2,536.512h2.441v7.261l7.583-7.261h3.4l-8.64,8.295,8.7,9.581h-3.109l-7.934-8.72v8.72H561.2Z" transform="translate(-561.203 -536.512)" fill="#fff"/>
    </g>
    <g id="Group_243" data-name="Group 243" transform="translate(445.727 424.252)">
      <path id="Path_3972" data-name="Path 3972" d="M633.234,536.512h2.7l4.392,7.2,4.344-7.2h2.707l-5.865,9.682v8.194h-2.441v-8.166Z" transform="translate(-633.234 -536.512)" fill="#fff"/>
    </g>
    <g id="Group_244" data-name="Group 244" transform="translate(352.043 454.244)">
      <path id="Path_3973" data-name="Path 3973" d="M377.967,627.894a3.329,3.329,0,0,1-4.6,0,3.282,3.282,0,0,1,0-4.6,3.329,3.329,0,0,1,4.595,0,3.282,3.282,0,0,1,0,4.6Zm-.509-4.119a2.525,2.525,0,0,0-3.586,0,2.616,2.616,0,0,0,0,3.642,2.525,2.525,0,0,0,3.586,0,2.616,2.616,0,0,0,0-3.642Z" transform="translate(-372.424 -622.374)" fill="#fff"/>
      <path id="Path_3974" data-name="Path 3974" d="M402.9,622.66v.654h-2.148v1.84h2.073v.654h-2.073v3.082h-.691V622.66Z" transform="translate(-390.134 -622.557)" fill="#fff"/>
      <path id="Path_3975" data-name="Path 3975" d="M420.242,622.66v.654h-2.148v1.84h2.073v.654h-2.073v3.082H417.4V622.66Z" transform="translate(-401.246 -622.557)" fill="#fff"/>
      <path id="Path_3976" data-name="Path 3976" d="M434.744,622.66h.691v6.229h-.691Z" transform="translate(-412.359 -622.557)" fill="#fff"/>
      <path id="Path_3977" data-name="Path 3977" d="M451.361,622.99v.86a2.859,2.859,0,0,0-.812-.579,2.564,2.564,0,0,0-1.074-.242,2.365,2.365,0,0,0-1.789.751,2.577,2.577,0,0,0-.714,1.844,2.342,2.342,0,0,0,.78,1.859,2.569,2.569,0,0,0,1.732.682,2.49,2.49,0,0,0,1.158-.29,2.755,2.755,0,0,0,.719-.523v.859a3.156,3.156,0,0,1-1.878.607,3.246,3.246,0,0,1-2.292-5.519,3.169,3.169,0,0,1,2.33-.925A2.968,2.968,0,0,1,451.361,622.99Z" transform="translate(-419.739 -622.374)" fill="#fff"/>
      <path id="Path_3978" data-name="Path 3978" d="M473.283,622.66v.654h-2.54v1.849h2.466v.654h-2.466v2.419h2.54v.654h-3.231V622.66Z" transform="translate(-434.984 -622.557)" fill="#fff"/>
      <path id="Path_3979" data-name="Path 3979" d="M497.432,623.345l-.551.364a1.476,1.476,0,0,0-.364-.467,1.119,1.119,0,0,0-.7-.214,1.075,1.075,0,0,0-.756.266.9.9,0,0,0-.289.7.723.723,0,0,0,.233.542,2.213,2.213,0,0,0,.654.392l.6.262a3.18,3.18,0,0,1,.962.588,1.532,1.532,0,0,1,.448,1.13,1.819,1.819,0,0,1-.56,1.382,1.965,1.965,0,0,1-1.41.532,1.85,1.85,0,0,1-1.354-.5,2.181,2.181,0,0,1-.579-1.1l.672-.186a1.413,1.413,0,0,0,.374.794,1.213,1.213,0,0,0,.9.345,1.187,1.187,0,0,0,.925-.36,1.251,1.251,0,0,0,.327-.873.939.939,0,0,0-.308-.728,3.1,3.1,0,0,0-.747-.43l-.56-.261a3.06,3.06,0,0,1-.831-.514,1.352,1.352,0,0,1-.43-1.018,1.493,1.493,0,0,1,.49-1.162,1.8,1.8,0,0,1,1.256-.444,1.722,1.722,0,0,1,1.606.971Z" transform="translate(-450.177 -622.374)" fill="#fff"/>
      <path id="Path_3980" data-name="Path 3980" d="M514.915,622.66v3.82q0,.355.014.551a1.6,1.6,0,0,0,.131.481,1.22,1.22,0,0,0,.35.481,1.664,1.664,0,0,0,2.055,0,1.225,1.225,0,0,0,.351-.481,1.616,1.616,0,0,0,.13-.481q.014-.2.014-.551v-3.82h.691v4.007a2.5,2.5,0,0,1-.392,1.494,1.986,1.986,0,0,1-.761.617,2.621,2.621,0,0,1-2.12,0,1.988,1.988,0,0,1-.761-.617,2.505,2.505,0,0,1-.392-1.494V622.66Z" transform="translate(-463.289 -622.557)" fill="#fff"/>
      <path id="Path_3981" data-name="Path 3981" d="M537.077,622.66h1.13a2.35,2.35,0,0,1,1.569.439,1.663,1.663,0,0,1,.57,1.336,1.717,1.717,0,0,1-.49,1.237,1.966,1.966,0,0,1-1.481.509h-.607v2.708h-.691Zm.691.654v2.213h.57a1.439,1.439,0,0,0,.966-.3,1.032,1.032,0,0,0,.351-.831q0-1.083-1.373-1.083Z" transform="translate(-477.933 -622.557)" fill="#fff"/>
      <path id="Path_3982" data-name="Path 3982" d="M554.991,622.66h1.13a2.35,2.35,0,0,1,1.569.439,1.662,1.662,0,0,1,.57,1.336,1.717,1.717,0,0,1-.49,1.237,1.966,1.966,0,0,1-1.481.509h-.607v2.708h-.691Zm.691.654v2.213h.57a1.438,1.438,0,0,0,.966-.3,1.032,1.032,0,0,0,.351-.831q0-1.083-1.373-1.083Z" transform="translate(-489.413 -622.557)" fill="#fff"/>
      <path id="Path_3983" data-name="Path 3983" d="M577.511,627.894a3.329,3.329,0,0,1-4.6,0,3.282,3.282,0,0,1,0-4.6,3.329,3.329,0,0,1,4.595,0,3.281,3.281,0,0,1,0,4.6ZM577,623.775a2.525,2.525,0,0,0-3.586,0,2.616,2.616,0,0,0,0,3.642,2.525,2.525,0,0,0,3.586,0,2.616,2.616,0,0,0,0-3.642Z" transform="translate(-500.291 -622.374)" fill="#fff"/>
      <path id="Path_3984" data-name="Path 3984" d="M599.6,622.66h1a2.7,2.7,0,0,1,1.513.346,1.553,1.553,0,0,1,.681,1.382,1.707,1.707,0,0,1-.434,1.2,1.619,1.619,0,0,1-1.135.523l1.98,2.783h-.841l-1.9-2.727H600.3v2.727H599.6Zm.691.654v2.232h.439a1.549,1.549,0,0,0,1.009-.3,1.028,1.028,0,0,0,.364-.841.971.971,0,0,0-.495-.915,1.861,1.861,0,0,0-.9-.177Z" transform="translate(-518.001 -622.557)" fill="#fff"/>
      <path id="Path_3985" data-name="Path 3985" d="M620.561,623.314h-1.513v5.576h-.691v-5.576h-1.513v-.654h3.717Z" transform="translate(-529.048 -622.557)" fill="#fff"/>
    </g>
  </g>
</svg>
