<svg xmlns="http://www.w3.org/2000/svg" width="20.738" height="14.525" viewBox="0 0 20.738 14.525">
  <g id="Group_4" data-name="Group 4" transform="translate(-247.688 -501.191)">
    <path id="Path_5" data-name="Path 5" d="M252.038,615.592h-3.425c-.116,0-.231,0-.347,0a.525.525,0,0,1-.578-.524c0-.306.233-.5.594-.508.494,0,.987,0,1.481,0q3.008,0,6.016.006a.31.31,0,0,0,.349-.234,2.063,2.063,0,0,1,3.861.013.294.294,0,0,0,.336.22c2.491-.006,4.983,0,7.474-.006a.561.561,0,0,1,.564.281.488.488,0,0,1-.03.526.522.522,0,0,1-.478.23c-.47,0-.941,0-1.411,0q-3.066,0-6.132,0a.281.281,0,0,0-.319.211,2.063,2.063,0,0,1-3.871.012.3.3,0,0,0-.336-.221C254.537,615.6,253.288,615.592,252.038,615.592Zm6.016.516a1.035,1.035,0,1,0-1.032-1.032A1.04,1.04,0,0,0,258.054,616.108Z" transform="translate(0 -101.435)" fill="#fff"/>
    <path id="Path_6" data-name="Path 6" d="M255.174,558.645q3.425,0,6.85,0a.276.276,0,0,0,.318-.21,2.065,2.065,0,0,1,3.872-.013.29.29,0,0,0,.333.225c.432-.013.864-.007,1.3,0a.52.52,0,1,1-.007,1.031c-.455,0-.91,0-1.365,0a.209.209,0,0,0-.233.164,2.067,2.067,0,0,1-3.913,0c-.054-.143-.135-.158-.259-.158q-5.7,0-11.409,0c-.8,0-1.6,0-2.407,0a.515.515,0,0,1-.133-1.02,1.643,1.643,0,0,1,.254-.011h6.8Zm9.1,1.552a1.034,1.034,0,1,0-1.031-1.031A1.04,1.04,0,0,0,264.275,560.2Z" transform="translate(-0.001 -50.711)" fill="#fff"/>
    <path id="Path_7" data-name="Path 7" d="M260.938,503.784q-3.424,0-6.848,0a.276.276,0,0,0-.319.208A2.062,2.062,0,0,1,249.9,504a.288.288,0,0,0-.331-.225c-.431.014-.864.009-1.3.005a.521.521,0,1,1-.005-1.033c.447,0,.895-.007,1.342,0a.231.231,0,0,0,.269-.175,2.065,2.065,0,0,1,3.9.005c.069.19.187.168.322.168l13.418,0c.123,0,.247,0,.37,0a.516.516,0,1,1-.016,1.03c-.463.007-.925,0-1.388,0h-5.552Zm-9.111-1.552a1.035,1.035,0,1,0,1.044,1.022A1.043,1.043,0,0,0,251.827,502.231Z" transform="translate(0 0)" fill="#fff"/>
  </g>
</svg>
