<svg xmlns="http://www.w3.org/2000/svg" width="37.938" height="38.018" viewBox="0 0 37.938 38.018">
  <g id="Group_152" data-name="Group 152" transform="translate(0)">
    <g id="Group_151" data-name="Group 151" transform="translate(0 0)">
      <path id="Path_3877" data-name="Path 3877" d="M37.483,27.9,32.177,22.6A3.529,3.529,0,0,0,26.3,23.922,3.611,3.611,0,0,1,22.134,26.2c-3.79-.947-8.906-5.874-9.853-9.853a3.434,3.434,0,0,1,2.274-4.169A3.529,3.529,0,0,0,15.881,6.3L10.576.995a3.784,3.784,0,0,0-5.116,0l-3.6,3.6c-3.6,3.79.379,13.832,9.285,22.738s18.948,13.074,22.738,9.285l3.6-3.6A3.784,3.784,0,0,0,37.483,27.9Z" transform="translate(-0.539 0)" fill="#106853"/>
    </g>
  </g>
</svg>
