<svg id="Group_161" data-name="Group 161" xmlns="http://www.w3.org/2000/svg" width="49.709" height="34.951" viewBox="0 0 49.709 34.951">
  <g id="Group_154" data-name="Group 154" transform="translate(34.195 2.497)">
    <g id="Group_153" data-name="Group 153" transform="translate(0 0)">
      <path id="Path_3878" data-name="Path 3878" d="M367.287,101.721,352.211,116.7l15.076,14.979a4.318,4.318,0,0,0,.438-1.872V103.593A4.317,4.317,0,0,0,367.287,101.721Z" transform="translate(-352.211 -101.721)" fill="#106853"/>
    </g>
  </g>
  <g id="Group_156" data-name="Group 156" transform="translate(2.497 0)">
    <g id="Group_155" data-name="Group 155" transform="translate(0 0)">
      <path id="Path_3879" data-name="Path 3879" d="M68.564,76H27.593a4.319,4.319,0,0,0-1.872.438L44.989,95.609a4.373,4.373,0,0,0,6.178,0L70.435,76.438A4.319,4.319,0,0,0,68.564,76Z" transform="translate(-25.721 -76)" fill="#106853"/>
    </g>
  </g>
  <g id="Group_158" data-name="Group 158" transform="translate(0 2.497)">
    <g id="Group_157" data-name="Group 157" transform="translate(0 0)">
      <path id="Path_3880" data-name="Path 3880" d="M.438,101.721A4.318,4.318,0,0,0,0,103.593v26.214a4.318,4.318,0,0,0,.438,1.872L15.513,116.7Z" transform="translate(0 -101.721)" fill="#106853"/>
    </g>
  </g>
  <g id="Group_160" data-name="Group 160" transform="translate(2.497 19.535)">
    <g id="Group_159" data-name="Group 159">
      <path id="Path_3881" data-name="Path 3881" d="M55.36,277.211l-2.133,2.133a7.289,7.289,0,0,1-10.3,0L40.8,277.211,25.721,292.19a4.319,4.319,0,0,0,1.872.438H68.564a4.319,4.319,0,0,0,1.872-.438Z" transform="translate(-25.721 -277.211)" fill="#106853"/>
    </g>
  </g>
</svg>
